<svg width="23" height="22" viewBox="0 0 23 22" fill="none" xmlns="http://www.w3.org/2000/svg">
<path d="M11.1855 20.167C16.24 20.167 20.3522 16.0548 20.3522 11.0003C20.3522 5.94585 16.24 1.83365 11.1855 1.83365C6.13103 1.83365 2.01883 5.94585 2.01883 11.0003C2.01883 16.0548 6.13103 20.167 11.1855 20.167ZM11.1855 18.792C6.87414 18.792 3.39383 15.3117 3.39383 11.0003C3.39383 6.68896 6.87414 3.20865 11.1855 3.20865C15.4969 3.20865 18.9772 6.68896 18.9772 11.0003C18.9772 15.3117 15.4969 18.792 11.1855 18.792ZM7.5251 13.3018C7.70667 13.2975 7.87916 13.2216 8.00492 13.0906L11.1855 9.90999L14.3661 13.0906C14.4302 13.1566 14.5068 13.209 14.5916 13.2449C14.6763 13.2807 14.7673 13.2991 14.8593 13.2992C14.9962 13.2991 15.1299 13.2583 15.2433 13.1818C15.3568 13.1054 15.4449 12.9968 15.4963 12.87C15.5477 12.7432 15.5602 12.604 15.532 12.4701C15.5039 12.3362 15.4364 12.2137 15.3383 12.1184L11.6716 8.45174C11.5427 8.32285 11.3678 8.25045 11.1855 8.25045C11.0032 8.25045 10.8284 8.32285 10.6994 8.45174L7.03275 12.1184C6.93278 12.2144 6.86413 12.3383 6.83581 12.4739C6.80748 12.6096 6.82081 12.7506 6.87404 12.8786C6.92727 13.0065 7.01792 13.1154 7.1341 13.1909C7.25028 13.2664 7.38657 13.3051 7.5251 13.3018Z" fill="white"/>
</svg>
